STARTFONT 2.1
COMMENT
COMMENT Converted from OpenType font "Q:\font stuff\winfont\Orbiteer-Bold.ttf" by "otf2bdf 3.0".
COMMENT
FONT -FreeType-Orbiteer-Bold-R-Normal--30-300-72-72-P-170-ISO10646-1
SIZE 30 72 72
FONTBOUNDINGBOX 45 36 -6 -7
STARTPROPERTIES 19
FOUNDRY "FreeType"
FAMILY_NAME "Orbiteer"
WEIGHT_NAME "Bold"
SLANT "R"
SETWIDTH_NAME "Normal"
ADD_STYLE_NAME ""
PIXEL_SIZE 24
POINT_SIZE 300
RESOLUTION_X 72
RESOLUTION_Y 72
SPACING "P"
AVERAGE_WIDTH 170
CHARSET_REGISTRY "ISO10646"
CHARSET_ENCODING "1"
FONT_ASCENT 22
FONT_DESCENT 5
COPYRIGHT "Copyright (c) 2012, Pioneer Developers <pioneer-dev@pioneerspacesim.net>    Based on Orbitron  Copyright (c) 2009, Matt McInerney <matt@pixelspread.com>"
_OTF_FONTFILE "Q:\font stuff\winfont\Orbiteer-Bold.ttf"
_OTF_PSNAME "Orbiteer-Bold"
ENDPROPERTIES
CHARS 221
STARTCHAR 0020
ENCODING 32
SWIDTH 300 0
DWIDTH 9 0
BBX 0 0 0 0
BITMAP
ENDCHAR
STARTCHAR 0021
ENCODING 33
SWIDTH 233 0
DWIDTH 7 0
BBX 4 22 2 0
BITMAP
F0
F0
F0
F0
F0
F0
F0
F0
F0
F0
F0
F0
F0
F0
F0
F0
00
00
F0
F0
F0
F0
ENDCHAR
STARTCHAR 0022
ENCODING 34
SWIDTH 366 0
DWIDTH 11 0
BBX 9 6 2 16
BITMAP
F780
F780
F780
F780
F780
F780
ENDCHAR
STARTCHAR 0023
ENCODING 35
SWIDTH 800 0
DWIDTH 24 0
BBX 22 22 1 0
BITMAP
00F078
01E078
01E0F0
01E0F0
03C0F0
7FFFFC
7FFFFC
7FFFFC
7FFFFC
0783C0
0783C0
0F0780
0F0780
FFFFF8
FFFFF8
FFFFF8
FFFFF8
3C0F00
3C1E00
3C1E00
781E00
783C00
ENDCHAR
STARTCHAR 0024
ENCODING 36
SWIDTH 800 0
DWIDTH 24 0
BBX 21 28 1 -4
BITMAP
007800
007800
007800
0FFFC0
7FFFF0
7FFFF8
FFFFF8
F07878
F07878
F07800
F07800
F07800
FFFFE0
FFFFF0
7FFFF8
3FFFF8
007878
007878
007878
F07878
F07878
FFFFF8
FFFFF8
7FFFF0
3FFFE0
007800
007800
007800
ENDCHAR
STARTCHAR 0025
ENCODING 37
SWIDTH 966 0
DWIDTH 29 0
BBX 26 22 1 -1
BITMAP
00000100
3FC00300
7FE00700
7FE00F00
F0E03F00
F0E07E00
F0E0FC00
F0E1F800
7FE3F000
7FCFE000
3F9F8000
003F1C00
007E7F80
00FCFF80
01F9FFC0
07F1E1C0
0FC1E1C0
1F81E1C0
1F01E1C0
1E00FFC0
1C00FF80
10007F00
ENDCHAR
STARTCHAR 0026
ENCODING 38
SWIDTH 933 0
DWIDTH 28 0
BBX 25 22 2 -1
BITMAP
0FFF8000
3FFFE000
7FFFF000
7FFFF000
7800F000
7800F000
78000000
78000000
78000000
7E000000
FF800000
FFE07800
F7F87800
F1FE7800
F07FF800
F01FF800
F007FC00
F001FE00
FFFFFF80
FFFFFF80
7FFFF380
3FFFE180
ENDCHAR
STARTCHAR 0027
ENCODING 39
SWIDTH 233 0
DWIDTH 7 0
BBX 4 6 2 16
BITMAP
F0
F0
F0
F0
F0
F0
ENDCHAR
STARTCHAR 0028
ENCODING 40
SWIDTH 266 0
DWIDTH 8 0
BBX 5 22 2 0
BITMAP
18
78
F8
F8
F0
E0
E0
E0
E0
E0
E0
E0
E0
E0
E0
E0
E0
E0
F8
F8
F8
38
ENDCHAR
STARTCHAR 0029
ENCODING 41
SWIDTH 266 0
DWIDTH 8 0
BBX 5 22 2 0
BITMAP
C0
F0
F8
F8
78
38
38
38
38
38
38
38
38
38
38
38
38
38
F8
F8
F8
E0
ENDCHAR
STARTCHAR 002A
ENCODING 42
SWIDTH 500 0
DWIDTH 15 0
BBX 13 13 1 8
BITMAP
0780
0780
0780
4790
FFF8
FFF8
FFF8
3FE0
1FC0
3FE0
3DF0
3DE0
18C0
ENDCHAR
STARTCHAR 002B
ENCODING 43
SWIDTH 433 0
DWIDTH 13 0
BBX 12 12 1 2
BITMAP
0F00
0F00
0F00
0F00
FFF0
FFF0
FFF0
FFF0
0F00
0F00
0F00
0F00
ENDCHAR
STARTCHAR 002C
ENCODING 44
SWIDTH 233 0
DWIDTH 7 0
BBX 4 8 2 -5
BITMAP
F0
F0
F0
F0
F0
E0
E0
80
ENDCHAR
STARTCHAR 002D
ENCODING 45
SWIDTH 533 0
DWIDTH 16 0
BBX 12 4 2 6
BITMAP
FFF0
FFF0
FFF0
FFF0
ENDCHAR
STARTCHAR 002E
ENCODING 46
SWIDTH 200 0
DWIDTH 6 0
BBX 4 4 2 0
BITMAP
F0
F0
F0
F0
ENDCHAR
STARTCHAR 002F
ENCODING 47
SWIDTH 533 0
DWIDTH 16 0
BBX 16 22 0 0
BITMAP
0003
0003
0007
000F
001F
003E
007C
0078
00F0
01F0
03E0
07C0
0F80
0F00
1E00
3E00
7C00
F800
F000
E000
C000
C000
ENDCHAR
STARTCHAR 0030
ENCODING 48
SWIDTH 833 0
DWIDTH 25 0
BBX 21 22 2 0
BITMAP
1FFF80
7FFFF0
FFFFF0
FFFFF8
F001F8
F003F8
F007F8
F00FF8
F01FF8
F07E78
F0FC78
F1F878
F3F078
F7E078
FFC078
FF0078
FE0078
FC0078
FFFFF8
FFFFF8
7FFFF0
3FFFE0
ENDCHAR
STARTCHAR 0031
ENCODING 49
SWIDTH 400 0
DWIDTH 12 0
BBX 10 22 1 0
BITMAP
07C0
07C0
0FC0
1FC0
3FC0
7FC0
FFC0
FBC0
03C0
03C0
03C0
03C0
03C0
03C0
03C0
03C0
03C0
03C0
03C0
03C0
03C0
03C0
ENDCHAR
STARTCHAR 0032
ENCODING 50
SWIDTH 833 0
DWIDTH 25 0
BBX 21 22 2 0
BITMAP
1FFF80
7FFFF0
FFFFF8
FFFFF8
F00078
F00078
000078
000078
000078
000078
7FFFF8
FFFFF0
FFFFF0
F00000
F00000
F00000
F00000
F00000
FFFFF8
FFFFF8
FFFFF8
FFFFF8
ENDCHAR
STARTCHAR 0033
ENCODING 51
SWIDTH 833 0
DWIDTH 25 0
BBX 21 22 2 0
BITMAP
1FFF00
7FFFE0
FFFFF0
FFFFF0
F000F0
F000F0
0000F0
0000F0
0000F0
1FFFF0
1FFFF0
1FFFF8
1FFFF8
000078
000078
000078
000078
F00078
FFFFF8
FFFFF8
7FFFF0
3FFFE0
ENDCHAR
STARTCHAR 0034
ENCODING 52
SWIDTH 733 0
DWIDTH 22 0
BBX 21 22 0 0
BITMAP
0003C0
0007C0
000FC0
001FC0
007FC0
00FFC0
01FFC0
03FBC0
07E3C0
0FC3C0
1F83C0
3F03C0
7C03C0
FFFFF8
FFFFF8
FFFFF8
FFFFF8
0003C0
0003C0
0003C0
0003C0
0003C0
ENDCHAR
STARTCHAR 0035
ENCODING 53
SWIDTH 833 0
DWIDTH 25 0
BBX 21 22 2 0
BITMAP
FFFFF8
FFFFF8
FFFFF8
FFFFF8
F00000
F00000
F00000
F00000
F00000
FFFFE0
FFFFF0
FFFFF8
FFFFF8
000078
000078
000078
F00078
F00078
FFFFF8
FFFFF8
7FFFF0
3FFFE0
ENDCHAR
STARTCHAR 0036
ENCODING 54
SWIDTH 833 0
DWIDTH 25 0
BBX 21 22 2 0
BITMAP
1FFFC0
7FFFC0
FFFFC0
FFFFC0
F00000
F00000
F00000
F00000
F00000
FFFFE0
FFFFF0
FFFFF8
FFFFF8
F00078
F00078
F00078
F00078
F00078
FFFFF8
FFFFF8
7FFFF0
3FFFE0
ENDCHAR
STARTCHAR 0037
ENCODING 55
SWIDTH 666 0
DWIDTH 20 0
BBX 18 22 0 0
BITMAP
FFFC00
FFFF80
FFFF80
FFFFC0
0003C0
0003C0
0003C0
0003C0
0003C0
0003C0
0003C0
0003C0
0003C0
0003C0
0003C0
0003C0
0003C0
0003C0
0003C0
0003C0
0003C0
0003C0
ENDCHAR
STARTCHAR 0038
ENCODING 56
SWIDTH 833 0
DWIDTH 25 0
BBX 21 22 2 0
BITMAP
1FFF80
7FFFF0
FFFFF8
FFFFF8
F00078
F00078
F00078
F00078
F00078
FFFFF8
FFFFF8
FFFFF8
FFFFF8
F00078
F00078
F00078
F00078
F00078
FFFFF8
FFFFF8
7FFFF0
3FFFE0
ENDCHAR
STARTCHAR 0039
ENCODING 57
SWIDTH 833 0
DWIDTH 25 0
BBX 21 22 2 0
BITMAP
1FFF80
7FFFF0
FFFFF0
FFFFF8
F00078
F00078
F00078
F00078
F00078
FFFFF8
FFFFF8
FFFFF8
7FFFF8
000078
000078
000078
000078
000078
FFFFF8
FFFFF8
7FFFF0
3FFFE0
ENDCHAR
STARTCHAR 003A
ENCODING 58
SWIDTH 200 0
DWIDTH 6 0
BBX 4 18 2 0
BITMAP
F0
F0
F0
F0
00
00
00
00
00
00
00
00
00
00
F0
F0
F0
F0
ENDCHAR
STARTCHAR 003B
ENCODING 59
SWIDTH 233 0
DWIDTH 7 0
BBX 3 22 2 -5
BITMAP
E0
E0
E0
E0
00
00
00
00
00
00
00
00
00
00
E0
E0
E0
E0
E0
E0
C0
80
ENDCHAR
STARTCHAR 003C
ENCODING 60
SWIDTH 466 0
DWIDTH 14 0
BBX 13 18 0 -1
BITMAP
0008
0038
0078
01F8
07F8
1FE0
3F80
FF00
FC00
FC00
FE00
7F80
1FE0
07F0
03F8
00F8
0038
0008
ENDCHAR
STARTCHAR 003D
ENCODING 61
SWIDTH 633 0
DWIDTH 19 0
BBX 15 9 2 5
BITMAP
FFFE
FFFE
FFFE
0000
0000
FFFE
FFFE
FFFE
FFFE
ENDCHAR
STARTCHAR 003E
ENCODING 62
SWIDTH 466 0
DWIDTH 14 0
BBX 12 17 2 0
BITMAP
C000
F000
FC00
FE00
7F80
1FE0
07F0
03F0
01F0
07F0
0FE0
3FC0
FF00
FC00
F800
E000
8000
ENDCHAR
STARTCHAR 003F
ENCODING 63
SWIDTH 666 0
DWIDTH 20 0
BBX 19 22 1 0
BITMAP
FFFE00
FFFF80
FFFFC0
FFFFE0
0001E0
0001E0
0001E0
0001E0
0001E0
0001E0
07FFE0
0FFFC0
1FFFC0
1FFF00
1E0000
1E0000
000000
000000
1E0000
1E0000
1E0000
1E0000
ENDCHAR
STARTCHAR 0040
ENCODING 64
SWIDTH 833 0
DWIDTH 25 0
BBX 21 22 2 0
BITMAP
1FFF80
7FFFF0
FFFFF8
FFFFF8
F00078
F00078
F0F878
F3FC78
F3FE78
F70E78
F70F78
F70F78
F70F78
F3FFF8
F3FFF8
F1FFF8
F00000
F00000
FFFFF8
FFFFF8
7FFFF8
3FFFF8
ENDCHAR
STARTCHAR 0041
ENCODING 65
SWIDTH 833 0
DWIDTH 25 0
BBX 21 22 2 0
BITMAP
1FFFC0
7FFFF0
FFFFF8
FFFFF8
F00078
F00078
F00078
F00078
F00078
F00078
F00078
FFFFF8
FFFFF8
FFFFF8
FFFFF8
F00078
F00078
F00078
F00078
F00078
F00078
F00078
ENDCHAR
STARTCHAR 0042
ENCODING 66
SWIDTH 833 0
DWIDTH 25 0
BBX 21 22 2 0
BITMAP
FFFF80
FFFFE0
FFFFF0
FFFFF0
F000F0
F00078
F00078
F00078
F00078
FFFFF0
FFFFF0
FFFFF8
FFFFF8
F00078
F00078
F00078
F00078
F00078
FFFFF8
FFFFF8
FFFFF0
FFFFE0
ENDCHAR
STARTCHAR 0043
ENCODING 67
SWIDTH 833 0
DWIDTH 25 0
BBX 21 22 2 0
BITMAP
1FFFF8
7FFFF8
FFFFF8
FFFFF8
F00000
F00000
F00000
F00000
F00000
F00000
F00000
F00000
F00000
F00000
F00000
F00000
F00000
F00000
FFFFF8
FFFFF8
7FFFF8
3FFFF8
ENDCHAR
STARTCHAR 0044
ENCODING 68
SWIDTH 833 0
DWIDTH 25 0
BBX 21 22 2 0
BITMAP
FFFFC0
FFFFF0
FFFFF8
FFFFF8
F00078
F00078
F00078
F00078
F00078
F00078
F00078
F00078
F00078
F00078
F00078
F00078
F00078
F00078
FFFFF8
FFFFF8
FFFFF0
FFFFE0
ENDCHAR
STARTCHAR 0045
ENCODING 69
SWIDTH 766 0
DWIDTH 23 0
BBX 20 22 2 0
BITMAP
FFFFF0
FFFFF0
FFFFF0
FFFFF0
F00000
F00000
F00000
F00000
F00000
FFFF80
FFFF80
FFFF80
FFFF80
F00000
F00000
F00000
F00000
F00000
FFFFF0
FFFFF0
FFFFF0
FFFFF0
ENDCHAR
STARTCHAR 0046
ENCODING 70
SWIDTH 733 0
DWIDTH 22 0
BBX 20 22 2 0
BITMAP
FFFFF0
FFFFF0
FFFFF0
FFFFF0
F00000
F00000
F00000
F00000
F00000
FFFF80
FFFF80
FFFF80
FFFF80
F00000
F00000
F00000
F00000
F00000
F00000
F00000
F00000
F00000
ENDCHAR
STARTCHAR 0047
ENCODING 71
SWIDTH 833 0
DWIDTH 25 0
BBX 21 22 2 0
BITMAP
1FFFC0
7FFFF0
FFFFF8
FFFFF8
F00078
F00078
F00000
F00000
F00000
F00000
F00FF8
F00FF8
F00FF8
F00FF8
F00078
F00078
F00078
F00078
FFFFF8
FFFFF8
7FFFF0
3FFFE0
ENDCHAR
STARTCHAR 0048
ENCODING 72
SWIDTH 866 0
DWIDTH 26 0
BBX 22 22 2 0
BITMAP
F0003C
F0003C
F0003C
F0003C
F0003C
F0003C
F0003C
F0003C
F0003C
FFFFFC
FFFFFC
FFFFFC
FFFFFC
F0003C
F0003C
F0003C
F0003C
F0003C
F0003C
F0003C
F0003C
F0003C
ENDCHAR
STARTCHAR 0049
ENCODING 73
SWIDTH 233 0
DWIDTH 7 0
BBX 4 22 2 0
BITMAP
F0
F0
F0
F0
F0
F0
F0
F0
F0
F0
F0
F0
F0
F0
F0
F0
F0
F0
F0
F0
F0
F0
ENDCHAR
STARTCHAR 004A
ENCODING 74
SWIDTH 766 0
DWIDTH 23 0
BBX 22 22 0 0
BITMAP
00003C
00003C
00003C
00003C
00003C
00003C
00003C
00003C
00003C
00003C
00003C
00003C
00003C
00003C
00003C
F0003C
F0003C
F0003C
FFFFFC
FFFFF8
7FFFF8
3FFFE0
ENDCHAR
STARTCHAR 004B
ENCODING 75
SWIDTH 800 0
DWIDTH 24 0
BBX 21 22 2 0
BITMAP
F000F8
F001F8
F003F0
F003E0
F007C0
F00F80
F01F00
F03E00
F07E00
FFFC00
FFF800
FFF800
FFF800
F07C00
F03E00
F01F00
F00F80
F00FC0
F007C0
F003E0
F001F0
F000F8
ENDCHAR
STARTCHAR 004C
ENCODING 76
SWIDTH 766 0
DWIDTH 23 0
BBX 21 22 2 0
BITMAP
F00000
F00000
F00000
F00000
F00000
F00000
F00000
F00000
F00000
F00000
F00000
F00000
F00000
F00000
F00000
F00000
F00000
F00000
FFFFF8
FFFFF8
FFFFF8
FFFFF8
ENDCHAR
STARTCHAR 004D
ENCODING 77
SWIDTH 933 0
DWIDTH 28 0
BBX 24 22 2 0
BITMAP
F0000F
F8001F
FC003F
FE007F
FE00FF
FF01FF
FF81FF
F7C3EF
F3E7CF
F3FF8F
F1FF0F
F0FF0F
F07E0F
F03C0F
F0180F
F0000F
F0000F
F0000F
F0000F
F0000F
F0000F
F0000F
ENDCHAR
STARTCHAR 004E
ENCODING 78
SWIDTH 833 0
DWIDTH 25 0
BBX 21 22 2 0
BITMAP
F00078
F80078
FC0078
FE0078
FE0078
FF0078
FF8078
F7C078
F3E078
F3F078
F1F078
F0F878
F07C78
F03E78
F01F78
F01FF8
F00FF8
F007F8
F003F8
F001F8
F000F8
F00078
ENDCHAR
STARTCHAR 004F
ENCODING 79
SWIDTH 833 0
DWIDTH 25 0
BBX 21 22 2 0
BITMAP
1FFFC0
7FFFF0
FFFFF8
FFFFF8
F00078
F00078
F00078
F00078
F00078
F00078
F00078
F00078
F00078
F00078
F00078
F00078
F00078
F00078
FFFFF8
FFFFF8
7FFFF0
3FFFE0
ENDCHAR
STARTCHAR 0050
ENCODING 80
SWIDTH 800 0
DWIDTH 24 0
BBX 21 22 2 0
BITMAP
FFFF80
FFFFF0
FFFFF8
FFFFF8
F00078
F00078
F00078
F00078
F00078
F00078
F00078
FFFFF8
FFFFF8
FFFFF0
FFFFC0
F00000
F00000
F00000
F00000
F00000
F00000
F00000
ENDCHAR
STARTCHAR 0051
ENCODING 81
SWIDTH 900 0
DWIDTH 27 0
BBX 24 22 2 0
BITMAP
1FFF80
7FFFF0
FFFFF8
FFFFF8
F00078
F00078
F00078
F00078
F00078
F00078
F00078
F00078
F00078
F00078
F00078
F00078
F00078
F00078
FFFFFF
FFFFFF
7FFFFF
3FFFFF
ENDCHAR
STARTCHAR 0052
ENCODING 82
SWIDTH 833 0
DWIDTH 25 0
BBX 21 22 2 0
BITMAP
FFFF80
FFFFF0
FFFFF8
FFFFF8
F00078
F00078
F00078
F00078
F00078
F00078
F00078
FFFFF8
FFFFF8
FFFFF0
FFFFC0
F01F80
F00F80
F007C0
F003E0
F001F0
F000F8
F00078
ENDCHAR
STARTCHAR 0053
ENCODING 83
SWIDTH 833 0
DWIDTH 25 0
BBX 21 22 2 0
BITMAP
1FFF80
7FFFF0
FFFFF8
FFFFF8
F00078
E00078
E00000
E00000
E00000
FFFFC0
FFFFF0
FFFFF8
7FFFF8
000078
000078
000078
E00078
E00078
FFFFF8
FFFFF8
FFFFF0
3FFFE0
ENDCHAR
STARTCHAR 0054
ENCODING 84
SWIDTH 766 0
DWIDTH 23 0
BBX 21 22 1 0
BITMAP
FFFFF8
FFFFF8
FFFFF8
FFFFF8
00F000
00F000
00F000
00F000
00F000
00F000
00F000
00F000
00F000
00F000
00F000
00F000
00F000
00F000
00F000
00F000
00F000
00F000
ENDCHAR
STARTCHAR 0055
ENCODING 85
SWIDTH 833 0
DWIDTH 25 0
BBX 21 22 2 0
BITMAP
F00078
F00078
F00078
F00078
F00078
F00078
F00078
F00078
F00078
F00078
F00078
F00078
F00078
F00078
F00078
F00078
F00078
F00078
FFFFF8
FFFFF8
7FFFF0
3FFFE0
ENDCHAR
STARTCHAR 0056
ENCODING 86
SWIDTH 1000 0
DWIDTH 30 0
BBX 29 22 1 0
BITMAP
F80000F8
780001F0
7C0001E0
3C0003E0
3E0003C0
1F0007C0
0F000F80
0F800F00
07801F00
07C01E00
03C03E00
03E03C00
01F07C00
00F0F800
00F8F000
0079F000
007DE000
003FE000
003FC000
001FC000
000F8000
000F0000
ENDCHAR
STARTCHAR 0057
ENCODING 87
SWIDTH 1166 0
DWIDTH 35 0
BBX 33 22 1 0
BITMAP
F001E00780
F803E00780
7803E00F00
7803F00F00
3C07F01F00
3C07F01E00
3C0FF81E00
1E0F783E00
1E0F7C3C00
1F1F3C3C00
0F1E3C7C00
0F1E3E7800
0FBC1E7800
07BC1EF000
07BC1FF000
03F80FF000
03F80FE000
03F807E000
01F007E000
01F007C000
01F003C000
00E003C000
ENDCHAR
STARTCHAR 0058
ENCODING 88
SWIDTH 800 0
DWIDTH 24 0
BBX 22 22 1 0
BITMAP
F8003C
FC007C
7E00F8
3E01F0
1F03E0
0F87E0
07CFC0
07EF80
03FF00
01FE00
00FC00
00FC00
01FE00
01FF00
03FF80
07CF80
0F87C0
1F83E0
3F01F0
3E00F8
7C00FC
F8007C
ENDCHAR
STARTCHAR 0059
ENCODING 89
SWIDTH 800 0
DWIDTH 24 0
BBX 23 22 1 0
BITMAP
F0001E
F8003E
7C007C
3E00F8
1E01F0
1F01F0
0F83E0
07C7C0
07EF80
03EF80
01FF00
00FE00
00FE00
007C00
007800
007800
007800
007800
007800
007800
007800
007800
ENDCHAR
STARTCHAR 005A
ENCODING 90
SWIDTH 833 0
DWIDTH 25 0
BBX 21 22 2 0
BITMAP
FFFFF8
FFFFF8
FFFFF8
FFFFF8
0001F8
0003F0
0007E0
000FC0
003F80
007E00
00FC00
01F800
03F000
0FE000
1FC000
3F0000
7E0000
FC0000
FFFFF8
FFFFF8
FFFFF8
FFFFF8
ENDCHAR
STARTCHAR 005B
ENCODING 91
SWIDTH 266 0
DWIDTH 8 0
BBX 5 22 2 0
BITMAP
F8
F8
F8
F8
F0
F0
F0
F0
F0
F0
F0
F0
F0
F0
F0
F0
F0
F0
F8
F8
F8
F8
ENDCHAR
STARTCHAR 005C
ENCODING 92
SWIDTH 533 0
DWIDTH 16 0
BBX 16 22 0 0
BITMAP
8000
C000
E000
F000
F800
7800
3C00
1E00
1F00
0F80
07C0
03C0
01E0
01F0
00F8
007C
003E
001E
000F
000F
0007
0003
ENDCHAR
STARTCHAR 005D
ENCODING 93
SWIDTH 266 0
DWIDTH 8 0
BBX 5 22 2 0
BITMAP
F8
F8
F8
F8
78
78
78
78
78
78
78
78
78
78
78
78
78
78
F8
F8
F8
F8
ENDCHAR
STARTCHAR 005F
ENCODING 95
SWIDTH 833 0
DWIDTH 25 0
BBX 21 4 2 -4
BITMAP
FFFFF8
FFFFF8
FFFFF8
FFFFF8
ENDCHAR
STARTCHAR 0060
ENCODING 96
SWIDTH 200 0
DWIDTH 6 0
BBX 5 5 1 24
BITMAP
F0
F0
78
78
78
ENDCHAR
STARTCHAR 0061
ENCODING 97
SWIDTH 700 0
DWIDTH 21 0
BBX 17 17 2 1
BITMAP
FFFF00
FFFF80
FFFF80
FFFF80
000780
000780
FFFF80
FFFF80
FFFF80
FFFF80
E00780
E00780
E00780
FFFF80
FFFF80
FFFF80
3FFF80
ENDCHAR
STARTCHAR 0062
ENCODING 98
SWIDTH 666 0
DWIDTH 20 0
BBX 17 23 2 1
BITMAP
F00000
F00000
F00000
F00000
F00000
F00000
FFFF00
FFFF80
FFFF80
FFFF80
F00780
F00780
F00780
F00780
F00780
F00780
F00780
F00780
F00780
FFFF80
FFFF80
FFFF00
FFFE00
ENDCHAR
STARTCHAR 0063
ENCODING 99
SWIDTH 700 0
DWIDTH 21 0
BBX 17 17 2 1
BITMAP
7FFF80
FFFF80
FFFF80
FFFF80
E00000
E00000
E00000
E00000
E00000
E00000
E00000
E00000
E00000
FFFF80
FFFF80
FFFF80
3FFF80
ENDCHAR
STARTCHAR 0064
ENCODING 100
SWIDTH 666 0
DWIDTH 20 0
BBX 17 23 1 1
BITMAP
000780
000780
000780
000780
000780
000780
7FFF80
FFFF80
FFFF80
FFFF80
F00780
F00780
F00780
F00780
F00780
F00780
F00780
F00780
F00780
FFFF80
FFFF80
7FFF80
3FFF80
ENDCHAR
STARTCHAR 0065
ENCODING 101
SWIDTH 700 0
DWIDTH 21 0
BBX 17 17 2 1
BITMAP
7FFF00
FFFF80
FFFF80
FFFF80
E00780
E00780
FFFF80
FFFF80
FFFF80
FFFF80
E00000
E00000
E00000
FFFF80
FFFF80
FFFF80
3FFF80
ENDCHAR
STARTCHAR 0066
ENCODING 102
SWIDTH 433 0
DWIDTH 13 0
BBX 10 23 2 1
BITMAP
3FC0
FFC0
FFC0
FFC0
F000
F000
FFC0
FFC0
FFC0
FFC0
F000
F000
F000
F000
F000
F000
F000
F000
F000
F000
F000
F000
F000
ENDCHAR
STARTCHAR 0067
ENCODING 103
SWIDTH 666 0
DWIDTH 20 0
BBX 18 24 1 -6
BITMAP
3FFF00
7FFF80
FFFFC0
FFFFC0
F003C0
F003C0
F003C0
F003C0
F003C0
F003C0
F003C0
F003C0
F003C0
FFFFC0
7FFFC0
7FFFC0
3FFFC0
0003C0
0003C0
0003C0
1FFFC0
1FFFC0
1FFF80
1FFF00
ENDCHAR
STARTCHAR 0068
ENCODING 104
SWIDTH 666 0
DWIDTH 20 0
BBX 17 23 2 1
BITMAP
F00000
F00000
F00000
F00000
F00000
F00000
FFFF00
FFFF80
FFFF80
FFFF80
F00780
F00780
F00780
F00780
F00780
F00780
F00780
F00780
F00780
F00780
F00780
F00780
F00780
ENDCHAR
STARTCHAR 0069
ENCODING 105
SWIDTH 233 0
DWIDTH 7 0
BBX 3 23 2 1
BITMAP
E0
E0
E0
E0
00
00
E0
E0
E0
E0
E0
E0
E0
E0
E0
E0
E0
E0
E0
E0
E0
E0
E0
ENDCHAR
STARTCHAR 006A
ENCODING 106
SWIDTH 233 0
DWIDTH 7 0
BBX 12 30 -6 -6
BITMAP
00F0
00F0
00F0
00F0
0000
0000
00F0
00F0
00F0
00F0
00F0
00F0
00F0
00F0
00F0
00F0
00F0
00F0
00F0
00F0
00F0
00F0
00F0
00F0
00F0
00F0
FFF0
FFE0
FFE0
FF00
ENDCHAR
STARTCHAR 006B
ENCODING 107
SWIDTH 633 0
DWIDTH 19 0
BBX 17 23 2 1
BITMAP
F00000
F00000
F00000
F00000
F00000
F00000
F00F80
F01F00
F03E00
F07C00
F0FC00
F1F800
FFF000
FFE000
FFC000
FFE000
F1F000
F0F800
F07C00
F03E00
F01F00
F01F80
F00F80
ENDCHAR
STARTCHAR 006C
ENCODING 108
SWIDTH 333 0
DWIDTH 10 0
BBX 7 23 2 1
BITMAP
F0
F0
F0
F0
F0
F0
F0
F0
F0
F0
F0
F0
F0
F0
F0
F0
F0
F0
F0
FE
FE
FE
3E
ENDCHAR
STARTCHAR 006D
ENCODING 109
SWIDTH 966 0
DWIDTH 29 0
BBX 25 17 2 1
BITMAP
FFFFFF00
FFFFFF80
FFFFFF80
FFFFFF80
F01C0780
F01C0780
F01C0780
F01C0780
F01C0780
F01C0780
F01C0780
F01C0780
F01C0780
F01C0780
F01C0780
F01C0780
F01C0780
ENDCHAR
STARTCHAR 006E
ENCODING 110
SWIDTH 700 0
DWIDTH 21 0
BBX 17 17 2 1
BITMAP
FFFF00
FFFF80
FFFF80
FFFF80
F00780
F00780
F00780
F00780
F00780
F00780
F00780
F00780
F00780
F00780
F00780
F00780
F00780
ENDCHAR
STARTCHAR 006F
ENCODING 111
SWIDTH 700 0
DWIDTH 21 0
BBX 17 17 2 1
BITMAP
7FFF00
FFFF80
FFFF80
FFFF80
E00780
E00780
E00780
E00780
E00780
E00780
E00780
E00780
E00780
FFFF80
FFFF80
FFFF00
3FFE00
ENDCHAR
STARTCHAR 0070
ENCODING 112
SWIDTH 666 0
DWIDTH 20 0
BBX 17 24 2 -6
BITMAP
FFFF00
FFFF80
FFFF80
FFFF80
F00780
F00780
F00780
F00780
F00780
F00780
F00780
F00780
F00780
FFFF80
FFFF80
FFFF00
FFFE00
F00000
F00000
F00000
F00000
F00000
F00000
F00000
ENDCHAR
STARTCHAR 0071
ENCODING 113
SWIDTH 666 0
DWIDTH 20 0
BBX 17 24 1 -6
BITMAP
7FFF80
FFFF80
FFFF80
FFFF80
F00780
F00780
F00780
F00780
F00780
F00780
F00780
F00780
F00780
FFFF80
FFFF80
7FFF80
3FFF80
000780
000780
000780
000780
000780
000780
000780
ENDCHAR
STARTCHAR 0072
ENCODING 114
SWIDTH 533 0
DWIDTH 16 0
BBX 13 17 2 1
BITMAP
7FF8
FFF8
FFF8
FFF8
E000
E000
E000
E000
E000
E000
E000
E000
E000
E000
E000
E000
E000
ENDCHAR
STARTCHAR 0073
ENCODING 115
SWIDTH 700 0
DWIDTH 21 0
BBX 18 17 1 1
BITMAP
3FFF80
7FFF80
7FFFC0
FFFFC0
F00000
F00000
FFFE00
7FFF80
7FFFC0
3FFFC0
0003C0
0003C0
F003C0
FFFFC0
7FFFC0
7FFF80
1FFF00
ENDCHAR
STARTCHAR 0074
ENCODING 116
SWIDTH 433 0
DWIDTH 13 0
BBX 10 23 2 1
BITMAP
F000
F000
F000
F000
F000
F000
FFC0
FFC0
FFC0
FFC0
F000
F000
F000
F000
F000
F000
F000
F000
F000
FFC0
FFC0
FFC0
3FC0
ENDCHAR
STARTCHAR 0075
ENCODING 117
SWIDTH 700 0
DWIDTH 21 0
BBX 17 17 2 1
BITMAP
F00780
F00780
F00780
F00780
F00780
F00780
F00780
F00780
F00780
F00780
F00780
F00780
F00780
FFFF80
FFFF80
FFFF00
3FFE00
ENDCHAR
STARTCHAR 0076
ENCODING 118
SWIDTH 800 0
DWIDTH 24 0
BBX 22 17 1 1
BITMAP
F8007C
780078
7C00F8
3C00F0
3E01F0
1E01E0
1F03E0
0F03C0
0787C0
07CF80
03CF00
03FF00
01FE00
01FE00
00FC00
00FC00
007800
ENDCHAR
STARTCHAR 0077
ENCODING 119
SWIDTH 1066 0
DWIDTH 32 0
BBX 29 17 1 1
BITMAP
F80F8078
780FC078
780FC078
3C1FE0F0
3C1FE0F0
3E3FF1F0
1E3DF1E0
1E7CF9E0
0F7CFBC0
0F787FC0
0FF87FC0
07F03F80
07F03F80
03E01F80
03E01F00
03E00F00
01C00E00
ENDCHAR
STARTCHAR 0078
ENCODING 120
SWIDTH 700 0
DWIDTH 21 0
BBX 18 17 1 1
BITMAP
F807C0
7C0FC0
3E0F80
1F1F00
0FBE00
07FC00
07F800
03F000
03F000
03F800
07FC00
0FBE00
1F3E00
3F1F00
3E0F80
7C07C0
F803C0
ENDCHAR
STARTCHAR 0079
ENCODING 121
SWIDTH 700 0
DWIDTH 21 0
BBX 18 24 1 -6
BITMAP
F003C0
F003C0
F003C0
F003C0
F003C0
F003C0
F003C0
F003C0
F003C0
F003C0
F003C0
F003C0
F003C0
FFFFC0
7FFFC0
7FFFC0
3FFFC0
0003C0
0003C0
0003C0
1FFFC0
1FFFC0
1FFF80
1FFF00
ENDCHAR
STARTCHAR 007A
ENCODING 122
SWIDTH 700 0
DWIDTH 21 0
BBX 17 17 2 1
BITMAP
FFFF80
FFFF80
FFFF80
FFFF80
003F80
007E00
00FC00
03F800
07E000
0FC000
3F8000
7E0000
FC0000
FFFF80
FFFF80
FFFF80
FFFF80
ENDCHAR
STARTCHAR 007B
ENCODING 123
SWIDTH 300 0
DWIDTH 9 0
BBX 7 22 1 0
BITMAP
06
3E
7E
7E
78
78
78
78
78
F8
F0
F0
F8
78
78
78
78
78
7E
7E
3E
1E
ENDCHAR
STARTCHAR 007C
ENCODING 124
SWIDTH 200 0
DWIDTH 6 0
BBX 4 27 2 -3
BITMAP
F0
F0
F0
F0
F0
F0
F0
F0
F0
F0
F0
F0
F0
F0
F0
F0
F0
F0
F0
F0
F0
F0
F0
F0
F0
F0
F0
ENDCHAR
STARTCHAR 007D
ENCODING 125
SWIDTH 300 0
DWIDTH 9 0
BBX 7 22 2 0
BITMAP
C0
F0
F8
F8
78
78
78
78
78
7E
3E
3E
7E
78
78
78
78
78
F8
F8
F0
E0
ENDCHAR
STARTCHAR 007E
ENCODING 126
SWIDTH 400 0
DWIDTH 12 0
BBX 11 4 1 7
BITMAP
F800
FF60
FFE0
07E0
ENDCHAR
STARTCHAR 00A1
ENCODING 161
SWIDTH 200 0
DWIDTH 6 0
BBX 4 22 2 0
BITMAP
F0
F0
F0
F0
00
00
F0
F0
F0
F0
F0
F0
F0
F0
F0
F0
F0
F0
F0
F0
F0
F0
ENDCHAR
STARTCHAR 00A2
ENCODING 162
SWIDTH 633 0
DWIDTH 19 0
BBX 18 24 1 -3
BITMAP
00F000
00F000
00F000
1FFFC0
7FFFC0
FFFFC0
FFFFC0
F0F000
F0F000
F0F000
F0F000
F0F000
F0F000
F0F000
F0F000
F0F000
F0F000
FFFFC0
FFFFC0
7FFFC0
3FFFC0
00F000
00F000
00F000
ENDCHAR
STARTCHAR 00A3
ENCODING 163
SWIDTH 733 0
DWIDTH 22 0
BBX 19 22 1 0
BITMAP
01FF00
0FFFC0
0FFFE0
1FFFE0
1E00E0
1E00E0
1E0000
1E0000
1E0000
FFFF00
FFFF00
FFFF00
FFFF00
1E0000
1E0000
1E0000
1E0000
1E0000
FFFFE0
FFFFE0
FFFFE0
FFFFE0
ENDCHAR
STARTCHAR 00A8
ENCODING 168
SWIDTH 400 0
DWIDTH 12 0
BBX 9 4 2 23
BITMAP
F780
F780
F780
F780
ENDCHAR
STARTCHAR 00B0
ENCODING 176
SWIDTH 433 0
DWIDTH 13 0
BBX 11 10 1 11
BITMAP
3FC0
7FC0
7FE0
F0E0
F0E0
F0E0
F0E0
7FE0
7FC0
3F80
ENDCHAR
STARTCHAR 00B4
ENCODING 180
SWIDTH 200 0
DWIDTH 6 0
BBX 5 5 1 24
BITMAP
78
78
78
F0
F0
ENDCHAR
STARTCHAR 00B6
ENCODING 182
SWIDTH 833 0
DWIDTH 25 0
BBX 21 21 2 1
BITMAP
7FFFF8
FFFFF8
FFFFF8
FFFFF8
F01E78
F01E78
F01E78
F01E78
F01E78
F01E78
FFFFF8
FFFFF8
7FFFF8
1FFFF8
001E78
001E78
001E78
001E78
001E78
001E78
001E78
ENDCHAR
STARTCHAR 00B8
ENCODING 184
SWIDTH 200 0
DWIDTH 6 0
BBX 5 6 1 -5
BITMAP
78
78
78
78
F0
F0
ENDCHAR
STARTCHAR 00BF
ENCODING 191
SWIDTH 666 0
DWIDTH 20 0
BBX 18 22 1 0
BITMAP
001E00
001E00
001E00
001E00
000000
000000
001E00
001E00
0FFE00
7FFE00
FFFE00
FFFC00
F00000
F00000
F00000
F00000
F00000
F00000
FFFFC0
FFFFC0
FFFFC0
3FFFC0
ENDCHAR
STARTCHAR 00C0
ENCODING 192
SWIDTH 833 0
DWIDTH 25 0
BBX 21 29 2 0
BITMAP
00F000
007800
007800
007800
007800
003C00
000000
1FFFC0
7FFFF0
FFFFF8
FFFFF8
F00078
F00078
F00078
F00078
F00078
F00078
F00078
FFFFF8
FFFFF8
FFFFF8
FFFFF8
F00078
F00078
F00078
F00078
F00078
F00078
F00078
ENDCHAR
STARTCHAR 00C1
ENCODING 193
SWIDTH 833 0
DWIDTH 25 0
BBX 21 29 2 0
BITMAP
003C00
007800
007800
007800
007800
00F000
000000
1FFFC0
7FFFF0
FFFFF8
FFFFF8
F00078
F00078
F00078
F00078
F00078
F00078
F00078
FFFFF8
FFFFF8
FFFFF8
FFFFF8
F00078
F00078
F00078
F00078
F00078
F00078
F00078
ENDCHAR
STARTCHAR 00C2
ENCODING 194
SWIDTH 833 0
DWIDTH 25 0
BBX 21 28 2 1
BITMAP
007800
007800
00FC00
00FE00
01CE00
000000
1FFFC0
7FFFF0
FFFFF8
FFFFF8
F00078
F00078
F00078
F00078
F00078
F00078
F00078
FFFFF8
FFFFF8
FFFFF8
FFFFF8
F00078
F00078
F00078
F00078
F00078
F00078
F00078
ENDCHAR
STARTCHAR 00C3
ENCODING 195
SWIDTH 833 0
DWIDTH 25 0
BBX 21 28 2 1
BITMAP
07C000
07F900
07FF00
001F00
000400
000000
1FFFC0
7FFFF0
FFFFF8
FFFFF8
F00078
F00078
F00078
F00078
F00078
F00078
F00078
FFFFF8
FFFFF8
FFFFF8
FFFFF8
F00078
F00078
F00078
F00078
F00078
F00078
F00078
ENDCHAR
STARTCHAR 00C4
ENCODING 196
SWIDTH 833 0
DWIDTH 25 0
BBX 21 27 2 1
BITMAP
03DE00
03DE00
03DE00
03DE00
000000
1FFFC0
7FFFF0
FFFFF8
FFFFF8
F00078
F00078
F00078
F00078
F00078
F00078
F00078
FFFFF8
FFFFF8
FFFFF8
FFFFF8
F00078
F00078
F00078
F00078
F00078
F00078
F00078
ENDCHAR
STARTCHAR 00C5
ENCODING 197
SWIDTH 833 0
DWIDTH 25 0
BBX 21 29 2 0
BITMAP
007000
00F800
00D800
00D800
00F800
007000
000000
1FFFC0
7FFFF0
FFFFF8
FFFFF8
F00078
F00078
F00078
F00078
F00078
F00078
F00078
FFFFF8
FFFFF8
FFFFF8
FFFFF8
F00078
F00078
F00078
F00078
F00078
F00078
F00078
ENDCHAR
STARTCHAR 00C6
ENCODING 198
SWIDTH 1366 0
DWIDTH 41 0
BBX 37 22 2 0
BITMAP
1FFFFFFFF8
7FFFFFFFF8
FFFFFFFFF8
FFFFFFFFF8
F000780000
F000780000
F000780000
F000780000
F000780000
F0007FFFC0
F0007FFFC0
FFFFFFFFC0
FFFFFFFFC0
FFFFF80000
FFFFF80000
F000780000
F000780000
F000780000
F0007FFFF8
F0007FFFF8
F0007FFFF8
F0007FFFF8
ENDCHAR
STARTCHAR 00C7
ENCODING 199
SWIDTH 833 0
DWIDTH 25 0
BBX 21 27 2 -5
BITMAP
1FFFF8
7FFFF8
FFFFF8
FFFFF8
F00000
F00000
F00000
F00000
F00000
F00000
F00000
F00000
F00000
F00000
F00000
F00000
F00000
F00000
FFFFF8
FFFFF8
7FFFF8
3FFFF8
007800
007800
007800
00F000
00F000
ENDCHAR
STARTCHAR 00C8
ENCODING 200
SWIDTH 766 0
DWIDTH 23 0
BBX 20 29 2 0
BITMAP
01E000
00F000
00F000
00F000
00F000
007800
000000
FFFFF0
FFFFF0
FFFFF0
FFFFF0
F00000
F00000
F00000
F00000
F00000
FFFF80
FFFF80
FFFF80
FFFF80
F00000
F00000
F00000
F00000
F00000
FFFFF0
FFFFF0
FFFFF0
FFFFF0
ENDCHAR
STARTCHAR 00C9
ENCODING 201
SWIDTH 766 0
DWIDTH 23 0
BBX 20 29 2 0
BITMAP
007800
00F000
00F000
00F000
00F000
01E000
000000
FFFFF0
FFFFF0
FFFFF0
FFFFF0
F00000
F00000
F00000
F00000
F00000
FFFF80
FFFF80
FFFF80
FFFF80
F00000
F00000
F00000
F00000
F00000
FFFFF0
FFFFF0
FFFFF0
FFFFF0
ENDCHAR
STARTCHAR 00CA
ENCODING 202
SWIDTH 766 0
DWIDTH 23 0
BBX 20 28 2 1
BITMAP
00F000
00F000
01F800
01FC00
039C00
000000
FFFFF0
FFFFF0
FFFFF0
FFFFF0
F00000
F00000
F00000
F00000
F00000
FFFF80
FFFF80
FFFF80
FFFF80
F00000
F00000
F00000
F00000
F00000
FFFFF0
FFFFF0
FFFFF0
FFFFF0
ENDCHAR
STARTCHAR 00CB
ENCODING 203
SWIDTH 766 0
DWIDTH 23 0
BBX 20 27 2 1
BITMAP
07BC00
07BC00
07BC00
07BC00
000000
FFFFF0
FFFFF0
FFFFF0
FFFFF0
F00000
F00000
F00000
F00000
F00000
FFFF80
FFFF80
FFFF80
FFFF80
F00000
F00000
F00000
F00000
F00000
FFFFF0
FFFFF0
FFFFF0
FFFFF0
ENDCHAR
STARTCHAR 00CC
ENCODING 204
SWIDTH 233 0
DWIDTH 7 0
BBX 5 29 1 0
BITMAP
F0
F0
78
78
78
78
00
78
78
78
78
78
78
78
78
78
78
78
78
78
78
78
78
78
78
78
78
78
78
ENDCHAR
STARTCHAR 00CD
ENCODING 205
SWIDTH 233 0
DWIDTH 7 0
BBX 5 29 1 0
BITMAP
78
78
78
78
F0
F0
00
78
78
78
78
78
78
78
78
78
78
78
78
78
78
78
78
78
78
78
78
78
78
ENDCHAR
STARTCHAR 00CE
ENCODING 206
SWIDTH 233 0
DWIDTH 7 0
BBX 8 28 0 1
BITMAP
3C
3C
7E
EE
E7
00
3C
3C
3C
3C
3C
3C
3C
3C
3C
3C
3C
3C
3C
3C
3C
3C
3C
3C
3C
3C
3C
3C
ENDCHAR
STARTCHAR 00CF
ENCODING 207
SWIDTH 233 0
DWIDTH 7 0
BBX 9 27 -1 1
BITMAP
F780
F780
F780
F780
0000
1E00
1E00
1E00
1E00
1E00
1E00
1E00
1E00
1E00
1E00
1E00
1E00
1E00
1E00
1E00
1E00
1E00
1E00
1E00
1E00
1E00
1E00
ENDCHAR
STARTCHAR 00D1
ENCODING 209
SWIDTH 833 0
DWIDTH 25 0
BBX 21 28 2 1
BITMAP
07C000
07F100
07FF00
003F00
000400
000000
F00078
F80078
FC0078
FE0078
FE0078
FF0078
FF8078
F7C078
F3E078
F3F078
F1F078
F0F878
F07C78
F03E78
F01F78
F01FF8
F00FF8
F007F8
F003F8
F001F8
F000F8
F00078
ENDCHAR
STARTCHAR 00D2
ENCODING 210
SWIDTH 833 0
DWIDTH 25 0
BBX 21 29 2 0
BITMAP
00F000
007800
007800
007800
007800
003C00
000000
1FFFC0
7FFFF0
FFFFF8
FFFFF8
F00078
F00078
F00078
F00078
F00078
F00078
F00078
F00078
F00078
F00078
F00078
F00078
F00078
F00078
FFFFF8
FFFFF8
7FFFF0
3FFFE0
ENDCHAR
STARTCHAR 00D3
ENCODING 211
SWIDTH 833 0
DWIDTH 25 0
BBX 21 29 2 0
BITMAP
007800
007800
007800
007800
00F000
00F000
000000
1FFFC0
7FFFF0
FFFFF8
FFFFF8
F00078
F00078
F00078
F00078
F00078
F00078
F00078
F00078
F00078
F00078
F00078
F00078
F00078
F00078
FFFFF8
FFFFF8
7FFFF0
3FFFE0
ENDCHAR
STARTCHAR 00D4
ENCODING 212
SWIDTH 833 0
DWIDTH 25 0
BBX 21 28 2 1
BITMAP
007800
007800
00FC00
01FE00
01CE00
000000
1FFFC0
7FFFF0
FFFFF8
FFFFF8
F00078
F00078
F00078
F00078
F00078
F00078
F00078
F00078
F00078
F00078
F00078
F00078
F00078
F00078
FFFFF8
FFFFF8
7FFFF0
3FFFE0
ENDCHAR
STARTCHAR 00D5
ENCODING 213
SWIDTH 833 0
DWIDTH 25 0
BBX 21 28 2 1
BITMAP
07C000
07F100
07FF00
003F00
000400
000000
1FFFC0
7FFFF0
FFFFF8
FFFFF8
F00078
F00078
F00078
F00078
F00078
F00078
F00078
F00078
F00078
F00078
F00078
F00078
F00078
F00078
FFFFF8
FFFFF8
7FFFF0
3FFFE0
ENDCHAR
STARTCHAR 00D6
ENCODING 214
SWIDTH 833 0
DWIDTH 25 0
BBX 21 27 2 1
BITMAP
03DE00
03DE00
03DE00
03DE00
000000
1FFFC0
7FFFF0
FFFFF8
FFFFF8
F00078
F00078
F00078
F00078
F00078
F00078
F00078
F00078
F00078
F00078
F00078
F00078
F00078
F00078
FFFFF8
FFFFF8
7FFFF0
3FFFE0
ENDCHAR
STARTCHAR 00D7
ENCODING 215
SWIDTH 533 0
DWIDTH 16 0
BBX 13 12 2 3
BITMAP
F8F8
F9F0
7DF0
3FE0
1FC0
1F80
1F80
1FC0
3FE0
7DF0
F9F0
F8F8
ENDCHAR
STARTCHAR 00D9
ENCODING 217
SWIDTH 833 0
DWIDTH 25 0
BBX 21 29 2 0
BITMAP
00F000
007800
007800
007800
007800
003C00
000000
F00078
F00078
F00078
F00078
F00078
F00078
F00078
F00078
F00078
F00078
F00078
F00078
F00078
F00078
F00078
F00078
F00078
F00078
FFFFF8
FFFFF8
7FFFF0
3FFFE0
ENDCHAR
STARTCHAR 00DA
ENCODING 218
SWIDTH 833 0
DWIDTH 25 0
BBX 21 29 2 0
BITMAP
007800
007800
007800
007800
00F000
00F000
000000
F00078
F00078
F00078
F00078
F00078
F00078
F00078
F00078
F00078
F00078
F00078
F00078
F00078
F00078
F00078
F00078
F00078
F00078
FFFFF8
FFFFF8
7FFFF0
3FFFE0
ENDCHAR
STARTCHAR 00DB
ENCODING 219
SWIDTH 833 0
DWIDTH 25 0
BBX 21 28 2 1
BITMAP
007800
007800
00FC00
01FE00
01CE00
000000
F00078
F00078
F00078
F00078
F00078
F00078
F00078
F00078
F00078
F00078
F00078
F00078
F00078
F00078
F00078
F00078
F00078
F00078
FFFFF8
FFFFF8
7FFFF0
3FFFE0
ENDCHAR
STARTCHAR 00DC
ENCODING 220
SWIDTH 833 0
DWIDTH 25 0
BBX 21 27 2 1
BITMAP
03DE00
03DE00
03DE00
03DE00
000000
F00078
F00078
F00078
F00078
F00078
F00078
F00078
F00078
F00078
F00078
F00078
F00078
F00078
F00078
F00078
F00078
F00078
F00078
FFFFF8
FFFFF8
7FFFF0
3FFFE0
ENDCHAR
STARTCHAR 00DD
ENCODING 221
SWIDTH 800 0
DWIDTH 24 0
BBX 23 29 1 0
BITMAP
003C00
003C00
003C00
007800
007800
007800
000000
F0001E
F8003E
7C007C
3E00F8
1E01F0
1F01F0
0F83E0
07C7C0
07EF80
03EF80
01FF00
00FE00
00FE00
007C00
007800
007800
007800
007800
007800
007800
007800
007800
ENDCHAR
STARTCHAR 00DF
ENCODING 223
SWIDTH 833 0
DWIDTH 25 0
BBX 21 21 2 1
BITMAP
7FFFF0
FFFFF0
FFFFF8
FFFFF8
F00078
F00078
F00078
F00078
F3FFF8
F3FFF8
F3FFF8
F3FFF8
F00078
F00078
F00078
F00078
F00078
F3FFF8
F3FFF8
F3FFF0
F3FFE0
ENDCHAR
STARTCHAR 00E0
ENCODING 224
SWIDTH 733 0
DWIDTH 22 0
BBX 17 26 2 0
BITMAP
01E000
01E000
01E000
01E000
00F000
00F000
000000
000000
000000
FFFF00
FFFF80
FFFF80
FFFF80
000780
000780
FFFF80
FFFF80
FFFF80
FFFF80
E00780
E00780
E00780
FFFF80
FFFF80
FFFF80
3FFF80
ENDCHAR
STARTCHAR 00E1
ENCODING 225
SWIDTH 733 0
DWIDTH 22 0
BBX 17 26 2 0
BITMAP
00F000
00F000
01E000
01E000
01E000
01E000
000000
000000
000000
FFFF00
FFFF80
FFFF80
FFFF80
000780
000780
FFFF80
FFFF80
FFFF80
FFFF80
E00780
E00780
E00780
FFFF80
FFFF80
FFFF80
3FFF80
ENDCHAR
STARTCHAR 00E2
ENCODING 226
SWIDTH 733 0
DWIDTH 22 0
BBX 17 25 2 1
BITMAP
00E000
01F000
03F000
03B800
073C00
000000
000000
000000
FFFF00
FFFF80
FFFF80
FFFF80
000780
000780
FFFF80
FFFF80
FFFF80
FFFF80
E00780
E00780
E00780
FFFF80
FFFF80
FFFF80
3FFF80
ENDCHAR
STARTCHAR 00E3
ENCODING 227
SWIDTH 733 0
DWIDTH 22 0
BBX 17 25 2 1
BITMAP
0F0000
0FE200
0FFE00
007E00
001800
000000
000000
000000
FFFF00
FFFF80
FFFF80
FFFF80
000780
000780
FFFF80
FFFF80
FFFF80
FFFF80
E00780
E00780
E00780
FFFF80
FFFF80
FFFF80
3FFF80
ENDCHAR
STARTCHAR 00E4
ENCODING 228
SWIDTH 733 0
DWIDTH 22 0
BBX 17 24 2 1
BITMAP
07BC00
07BC00
07BC00
07BC00
000000
000000
000000
FFFF00
FFFF80
FFFF80
FFFF80
000780
000780
FFFF80
FFFF80
FFFF80
FFFF80
E00780
E00780
E00780
FFFF80
FFFF80
FFFF80
3FFF80
ENDCHAR
STARTCHAR 00E5
ENCODING 229
SWIDTH 733 0
DWIDTH 22 0
BBX 17 26 2 0
BITMAP
01C000
03E000
033000
033000
03E000
01C000
000000
000000
000000
FFFF00
FFFF80
FFFF80
FFFF80
000780
000780
FFFF80
FFFF80
FFFF80
FFFF80
E00780
E00780
E00780
FFFF80
FFFF80
FFFF80
3FFF80
ENDCHAR
STARTCHAR 00E6
ENCODING 230
SWIDTH 1166 0
DWIDTH 35 0
BBX 31 17 2 1
BITMAP
FFFFFFF8
FFFFFFFC
FFFFFFFE
FFFFFFFE
0007801E
0007801E
FFFFFFFE
FFFFFFFE
FFFFFFFE
FFFFFFFE
F0078000
F0078000
F0078000
FFFFFFFE
FFFFFFFE
FFFFFFFE
3FFFFFFE
ENDCHAR
STARTCHAR 00E7
ENCODING 231
SWIDTH 700 0
DWIDTH 21 0
BBX 17 22 2 -4
BITMAP
7FFF80
FFFF80
FFFF80
FFFF80
E00000
E00000
E00000
E00000
E00000
E00000
E00000
E00000
E00000
FFFF80
FFFF80
FFFF80
3FFF80
01E000
01E000
03C000
03C000
03C000
ENDCHAR
STARTCHAR 00E8
ENCODING 232
SWIDTH 633 0
DWIDTH 19 0
BBX 17 26 2 0
BITMAP
078000
03C000
03C000
03C000
03C000
01E000
000000
000000
000000
7FFF00
FFFF80
FFFF80
FFFF80
E00780
E00780
FFFF80
FFFF80
FFFF80
FFFF80
E00000
E00000
E00000
FFFF80
FFFF80
FFFF80
3FFF80
ENDCHAR
STARTCHAR 00E9
ENCODING 233
SWIDTH 633 0
DWIDTH 19 0
BBX 17 26 2 0
BITMAP
01E000
03C000
03C000
03C000
03C000
078000
000000
000000
000000
7FFF00
FFFF80
FFFF80
FFFF80
E00780
E00780
FFFF80
FFFF80
FFFF80
FFFF80
E00000
E00000
E00000
FFFF80
FFFF80
FFFF80
3FFF80
ENDCHAR
STARTCHAR 00EA
ENCODING 234
SWIDTH 633 0
DWIDTH 19 0
BBX 17 25 2 1
BITMAP
03C000
03C000
07E000
07F000
0E7000
000000
000000
000000
7FFF00
FFFF80
FFFF80
FFFF80
E00780
E00780
FFFF80
FFFF80
FFFF80
FFFF80
E00000
E00000
E00000
FFFF80
FFFF80
FFFF80
3FFF80
ENDCHAR
STARTCHAR 00EB
ENCODING 235
SWIDTH 633 0
DWIDTH 19 0
BBX 17 24 2 1
BITMAP
1E7000
1E7000
1E7000
1E7000
000000
000000
000000
7FFF00
FFFF80
FFFF80
FFFF80
E00780
E00780
FFFF80
FFFF80
FFFF80
FFFF80
E00000
E00000
E00000
FFFF80
FFFF80
FFFF80
3FFF80
ENDCHAR
STARTCHAR 00EC
ENCODING 236
SWIDTH 200 0
DWIDTH 6 0
BBX 5 26 1 0
BITMAP
F0
F0
F0
F0
78
78
00
00
00
78
78
78
78
78
78
78
78
78
78
78
78
78
78
78
78
78
ENDCHAR
STARTCHAR 00ED
ENCODING 237
SWIDTH 200 0
DWIDTH 6 0
BBX 5 26 2 0
BITMAP
78
78
F0
F0
F0
F0
00
00
00
E0
E0
E0
E0
E0
E0
E0
E0
E0
E0
E0
E0
E0
E0
E0
E0
E0
ENDCHAR
STARTCHAR 00EE
ENCODING 238
SWIDTH 200 0
DWIDTH 6 0
BBX 8 25 0 1
BITMAP
3C
7C
7E
EE
E7
00
00
00
38
38
38
38
38
38
38
38
38
38
38
38
38
38
38
38
38
ENDCHAR
STARTCHAR 00EF
ENCODING 239
SWIDTH 200 0
DWIDTH 6 0
BBX 9 24 -1 1
BITMAP
F780
F780
F780
F780
0000
0000
0000
1E00
1E00
1E00
1E00
1E00
1E00
1E00
1E00
1E00
1E00
1E00
1E00
1E00
1E00
1E00
1E00
1E00
ENDCHAR
STARTCHAR 00F1
ENCODING 241
SWIDTH 700 0
DWIDTH 21 0
BBX 17 25 2 1
BITMAP
1F0000
1FC000
1FFC00
10FC00
001800
000000
000000
000000
FFFF00
FFFF80
FFFF80
FFFF80
F00780
F00780
F00780
F00780
F00780
F00780
F00780
F00780
F00780
F00780
F00780
F00780
F00780
ENDCHAR
STARTCHAR 00F2
ENCODING 242
SWIDTH 700 0
DWIDTH 21 0
BBX 17 26 2 0
BITMAP
03C000
01C000
01E000
01E000
01E000
00E000
000000
000000
000000
7FFF00
FFFF80
FFFF80
FFFF80
E00780
E00780
E00780
E00780
E00780
E00780
E00780
E00780
E00780
FFFF80
FFFF80
FFFF00
3FFE00
ENDCHAR
STARTCHAR 00F3
ENCODING 243
SWIDTH 700 0
DWIDTH 21 0
BBX 17 26 2 0
BITMAP
01E000
01E000
01E000
01E000
03C000
03C000
000000
000000
000000
7FFF00
FFFF80
FFFF80
FFFF80
E00780
E00780
E00780
E00780
E00780
E00780
E00780
E00780
E00780
FFFF80
FFFF80
FFFF00
3FFE00
ENDCHAR
STARTCHAR 00F4
ENCODING 244
SWIDTH 700 0
DWIDTH 21 0
BBX 17 25 2 1
BITMAP
01E000
01E000
03F000
07F000
073800
000000
000000
000000
7FFF00
FFFF80
FFFF80
FFFF80
E00780
E00780
E00780
E00780
E00780
E00780
E00780
E00780
E00780
FFFF80
FFFF80
FFFF00
3FFE00
ENDCHAR
STARTCHAR 00F5
ENCODING 245
SWIDTH 700 0
DWIDTH 21 0
BBX 17 25 2 1
BITMAP
1F0000
1FC400
1FFC00
00FC00
001000
000000
000000
000000
7FFF00
FFFF80
FFFF80
FFFF80
E00780
E00780
E00780
E00780
E00780
E00780
E00780
E00780
E00780
FFFF80
FFFF80
FFFF00
3FFE00
ENDCHAR
STARTCHAR 00F6
ENCODING 246
SWIDTH 700 0
DWIDTH 21 0
BBX 17 24 2 1
BITMAP
0F7800
0F7800
0F7800
0F7800
000000
000000
000000
7FFF00
FFFF80
FFFF80
FFFF80
E00780
E00780
E00780
E00780
E00780
E00780
E00780
E00780
E00780
FFFF80
FFFF80
FFFF00
3FFE00
ENDCHAR
STARTCHAR 00F7
ENCODING 247
SWIDTH 500 0
DWIDTH 15 0
BBX 14 18 1 0
BITMAP
0780
0780
0780
0780
0000
0000
0000
FFFC
FFFC
FFFC
FFFC
0000
0000
0000
0780
0780
0780
0780
ENDCHAR
STARTCHAR 00F9
ENCODING 249
SWIDTH 700 0
DWIDTH 21 0
BBX 17 26 2 0
BITMAP
03C000
01E000
01E000
01E000
01E000
00F000
000000
000000
000000
F00780
F00780
F00780
F00780
F00780
F00780
F00780
F00780
F00780
F00780
F00780
F00780
F00780
FFFF80
FFFF80
FFFF00
3FFE00
ENDCHAR
STARTCHAR 00FA
ENCODING 250
SWIDTH 700 0
DWIDTH 21 0
BBX 17 26 2 0
BITMAP
01E000
01E000
01E000
01E000
03C000
03C000
000000
000000
000000
F00780
F00780
F00780
F00780
F00780
F00780
F00780
F00780
F00780
F00780
F00780
F00780
F00780
FFFF80
FFFF80
FFFF00
3FFE00
ENDCHAR
STARTCHAR 00FB
ENCODING 251
SWIDTH 700 0
DWIDTH 21 0
BBX 17 25 2 1
BITMAP
01E000
01E000
03F000
07F800
073800
000000
000000
000000
F00780
F00780
F00780
F00780
F00780
F00780
F00780
F00780
F00780
F00780
F00780
F00780
F00780
FFFF80
FFFF80
FFFF00
3FFE00
ENDCHAR
STARTCHAR 00FC
ENCODING 252
SWIDTH 700 0
DWIDTH 21 0
BBX 17 24 2 1
BITMAP
0F7800
0F7800
0F7800
0F7800
000000
000000
000000
F00780
F00780
F00780
F00780
F00780
F00780
F00780
F00780
F00780
F00780
F00780
F00780
F00780
FFFF80
FFFF80
FFFF00
3FFE00
ENDCHAR
STARTCHAR 00FD
ENCODING 253
SWIDTH 700 0
DWIDTH 21 0
BBX 18 33 1 -7
BITMAP
00F000
00F000
00F000
00F000
01E000
01E000
000000
000000
000000
F003C0
F003C0
F003C0
F003C0
F003C0
F003C0
F003C0
F003C0
F003C0
F003C0
F003C0
F003C0
F003C0
FFFFC0
7FFFC0
7FFFC0
3FFFC0
0003C0
0003C0
0003C0
1FFFC0
1FFFC0
1FFF80
1FFF00
ENDCHAR
STARTCHAR 00FF
ENCODING 255
SWIDTH 700 0
DWIDTH 21 0
BBX 18 31 1 -6
BITMAP
07BC00
07BC00
07BC00
07BC00
000000
000000
000000
F003C0
F003C0
F003C0
F003C0
F003C0
F003C0
F003C0
F003C0
F003C0
F003C0
F003C0
F003C0
F003C0
FFFFC0
7FFFC0
7FFFC0
3FFFC0
0003C0
0003C0
0003C0
1FFFC0
1FFFC0
1FFF80
1FFF00
ENDCHAR
STARTCHAR 0102
ENCODING 258
SWIDTH 833 0
DWIDTH 25 0
BBX 21 27 2 1
BITMAP
018C00
01FC00
00F800
000000
000000
1FFFC0
7FFFF0
FFFFF8
FFFFF8
F00078
F00078
F00078
F00078
F00078
F00078
F00078
FFFFF8
FFFFF8
FFFFF8
FFFFF8
F00078
F00078
F00078
F00078
F00078
F00078
F00078
ENDCHAR
STARTCHAR 0103
ENCODING 259
SWIDTH 700 0
DWIDTH 21 0
BBX 17 23 2 1
BITMAP
067000
07E000
03E000
000000
000000
000000
FFFF00
FFFF80
FFFF80
FFFF80
000780
000780
FFFF80
FFFF80
FFFF80
FFFF80
E00780
E00780
E00780
FFFF80
FFFF80
FFFF80
3FFF80
ENDCHAR
STARTCHAR 0104
ENCODING 260
SWIDTH 833 0
DWIDTH 25 0
BBX 21 27 2 -6
BITMAP
1FFFC0
7FFFF0
FFFFF8
FFFFF8
F00078
F00078
F00078
F00078
F00078
F00078
F00078
FFFFF8
FFFFF8
FFFFF8
FFFFF8
F00078
F00078
F00078
F00078
F00078
F00078
F00078
000078
0000F0
0000F0
0000F0
0000F0
ENDCHAR
STARTCHAR 0105
ENCODING 261
SWIDTH 700 0
DWIDTH 21 0
BBX 17 22 2 -5
BITMAP
FFFF00
FFFF80
FFFF80
FFFF80
000780
000780
FFFF80
FFFF80
FFFF80
FFFF80
E00780
E00780
E00780
FFFF80
FFFF80
FFFF80
3FFF80
000F00
001E00
001E00
001E00
001E00
ENDCHAR
STARTCHAR 0106
ENCODING 262
SWIDTH 833 0
DWIDTH 25 0
BBX 21 29 2 0
BITMAP
003C00
003C00
003C00
003C00
007800
000000
000000
1FFFF8
7FFFF8
FFFFF8
FFFFF8
F00000
F00000
F00000
F00000
F00000
F00000
F00000
F00000
F00000
F00000
F00000
F00000
F00000
F00000
FFFFF8
FFFFF8
7FFFF8
3FFFF8
ENDCHAR
STARTCHAR 0107
ENCODING 263
SWIDTH 700 0
DWIDTH 21 0
BBX 17 25 2 1
BITMAP
007800
007800
00F000
00F000
00F000
000000
000000
000000
7FFF80
FFFF80
FFFF80
FFFF80
E00000
E00000
E00000
E00000
E00000
E00000
E00000
E00000
E00000
FFFF80
FFFF80
FFFF80
3FFF80
ENDCHAR
STARTCHAR 010C
ENCODING 268
SWIDTH 833 0
DWIDTH 25 0
BBX 21 28 2 1
BITMAP
01CE00
00FC00
007C00
007800
003800
000000
1FFFF8
7FFFF8
FFFFF8
FFFFF8
F00000
F00000
F00000
F00000
F00000
F00000
F00000
F00000
F00000
F00000
F00000
F00000
F00000
F00000
FFFFF8
FFFFF8
7FFFF8
3FFFF8
ENDCHAR
STARTCHAR 010D
ENCODING 269
SWIDTH 700 0
DWIDTH 21 0
BBX 17 25 2 0
BITMAP
073800
07F000
03F000
01E000
01E000
000000
000000
000000
7FFF80
FFFF80
FFFF80
FFFF80
E00000
E00000
E00000
E00000
E00000
E00000
E00000
E00000
E00000
FFFF80
FFFF80
FFFF80
3FFF80
ENDCHAR
STARTCHAR 0110
ENCODING 272
SWIDTH 966 0
DWIDTH 29 0
BBX 26 22 2 0
BITMAP
0FFFFC00
0FFFFF00
0FFFFF80
0FFFFF80
0F0007C0
0F0003C0
0F0003C0
0F0003C0
0F0003C0
FFF003C0
FFF003C0
FFF003C0
FFF003C0
0F0003C0
0F0003C0
0F0003C0
0F0003C0
0F0003C0
0FFFFF80
0FFFFF80
0FFFFF80
0FFFFE00
ENDCHAR
STARTCHAR 0111
ENCODING 273
SWIDTH 766 0
DWIDTH 23 0
BBX 21 23 1 1
BITMAP
000780
007FF8
007FF8
007FF8
007FF8
000780
7FFF80
FFFF80
FFFF80
FFFF80
F00780
F00780
F00780
F00780
F00780
F00780
F00780
F00780
F00780
FFFF80
FFFF80
7FFF80
3FFF80
ENDCHAR
STARTCHAR 0118
ENCODING 280
SWIDTH 766 0
DWIDTH 23 0
BBX 20 27 2 -6
BITMAP
FFFFF0
FFFFF0
FFFFF0
FFFFF0
F00000
F00000
F00000
F00000
F00000
FFFF80
FFFF80
FFFF80
FFFF80
F00000
F00000
F00000
F00000
F00000
FFFFF0
FFFFF0
FFFFF0
FFFFF0
0003C0
000780
000780
000780
000780
ENDCHAR
STARTCHAR 0119
ENCODING 281
SWIDTH 700 0
DWIDTH 21 0
BBX 17 22 2 -5
BITMAP
7FFF00
FFFF80
FFFF80
FFFF80
E00780
E00780
FFFF80
FFFF80
FFFF80
FFFF80
E00000
E00000
E00000
FFFF80
FFFF80
FFFF80
3FFF80
001E00
001E00
001E00
001E00
003C00
ENDCHAR
STARTCHAR 0131
ENCODING 305
SWIDTH 200 0
DWIDTH 6 0
BBX 3 17 2 1
BITMAP
E0
E0
E0
E0
E0
E0
E0
E0
E0
E0
E0
E0
E0
E0
E0
E0
E0
ENDCHAR
STARTCHAR 0141
ENCODING 321
SWIDTH 866 0
DWIDTH 26 0
BBX 25 22 1 0
BITMAP
1E000000
1E000000
1E000000
1E000000
1E000000
1EC00000
1FC00000
1FC00000
1FC00000
1F800000
1F000000
3E000000
7E000000
FE000000
FE000000
DE000000
9E000000
1E000000
1FFFFF80
1FFFFF80
1FFFFF80
1FFFFF80
ENDCHAR
STARTCHAR 0142
ENCODING 322
SWIDTH 433 0
DWIDTH 13 0
BBX 11 23 1 1
BITMAP
1E00
1E00
1E00
1E00
1E00
1E40
1EC0
1FC0
1FC0
1FC0
1F80
3F00
7E00
FE00
FE00
FE00
DE00
9E00
1E00
1FE0
0FE0
0FE0
07E0
ENDCHAR
STARTCHAR 0143
ENCODING 323
SWIDTH 833 0
DWIDTH 25 0
BBX 21 29 2 0
BITMAP
003C00
003C00
003C00
007800
007800
000000
000000
F00078
F80078
FC0078
FE0078
FE0078
FF0078
FF8078
F7C078
F3E078
F3F078
F1F078
F0F878
F07C78
F03E78
F01F78
F01FF8
F00FF8
F007F8
F003F8
F001F8
F000F8
F00078
ENDCHAR
STARTCHAR 0144
ENCODING 324
SWIDTH 700 0
DWIDTH 21 0
BBX 17 25 2 1
BITMAP
01E000
01E000
01E000
03C000
03C000
000000
000000
000000
FFFF00
FFFF80
FFFF80
FFFF80
F00780
F00780
F00780
F00780
F00780
F00780
F00780
F00780
F00780
F00780
F00780
F00780
F00780
ENDCHAR
STARTCHAR 0152
ENCODING 338
SWIDTH 1366 0
DWIDTH 41 0
BBX 37 22 2 0
BITMAP
1FFFFFFFF8
7FFFFFFFF8
FFFFFFFFF8
FFFFFFFFF8
F000780000
F000780000
F000780000
F000780000
F000780000
F0007FFFC0
F0007FFFC0
F0007FFFC0
F0007FFFC0
F000780000
F000780000
F000780000
F000780000
F000780000
FFFFFFFFF8
FFFFFFFFF8
7FFFFFFFF8
3FFFFFFFF8
ENDCHAR
STARTCHAR 0153
ENCODING 339
SWIDTH 1166 0
DWIDTH 35 0
BBX 31 17 2 1
BITMAP
7FFFFFF8
FFFFFFFC
FFFFFFFE
FFFFFFFE
E007801E
E007801E
E007FFFE
E007FFFE
E007FFFE
E007FFFE
E0078000
E0078000
E0078000
FFFFFFFE
FFFFFFFE
FFFFFFFE
3FFFFFFE
ENDCHAR
STARTCHAR 015A
ENCODING 346
SWIDTH 833 0
DWIDTH 25 0
BBX 21 29 2 0
BITMAP
003C00
003C00
003C00
003C00
007800
000000
000000
1FFF80
7FFFF0
FFFFF8
FFFFF8
F00078
E00078
E00000
E00000
E00000
FFFFC0
FFFFF0
FFFFF8
7FFFF8
000078
000078
000078
E00078
E00078
FFFFF8
FFFFF8
FFFFF0
3FFFE0
ENDCHAR
STARTCHAR 015B
ENCODING 347
SWIDTH 700 0
DWIDTH 21 0
BBX 18 25 1 1
BITMAP
00F000
00F000
00F000
01E000
01E000
000000
000000
000000
3FFF80
7FFF80
7FFFC0
FFFFC0
F00000
F00000
FFFE00
7FFF80
7FFFC0
3FFFC0
0003C0
0003C0
F003C0
FFFFC0
7FFFC0
7FFF80
1FFF00
ENDCHAR
STARTCHAR 015E
ENCODING 350
SWIDTH 833 0
DWIDTH 25 0
BBX 21 28 2 -7
BITMAP
1FFF80
7FFFF0
FFFFF8
FFFFF8
F00078
E00078
E00000
E00000
E00000
FFFFC0
FFFFF0
FFFFF8
7FFFF8
000078
000078
000078
E00078
E00078
FFFFF8
FFFFF8
FFFFF0
3FFFE0
000000
007800
007800
007800
00F000
00F000
ENDCHAR
STARTCHAR 015F
ENCODING 351
SWIDTH 700 0
DWIDTH 21 0
BBX 18 23 1 -6
BITMAP
3FFF80
7FFF80
7FFFC0
FFFFC0
F00000
F00000
FFFE00
7FFF80
7FFFC0
3FFFC0
0003C0
0003C0
F003C0
FFFFC0
7FFFC0
7FFF80
1FFF00
000000
00F000
00F000
00F000
01E000
01E000
ENDCHAR
STARTCHAR 0160
ENCODING 352
SWIDTH 833 0
DWIDTH 25 0
BBX 21 28 2 1
BITMAP
01DE00
00FC00
00FC00
007800
003000
000000
1FFF80
7FFFF0
FFFFF8
FFFFF8
F00078
E00078
E00000
E00000
E00000
FFFFC0
FFFFF0
FFFFF8
7FFFF8
000078
000078
000078
E00078
E00078
FFFFF8
FFFFF8
FFFFF0
3FFFE0
ENDCHAR
STARTCHAR 0161
ENCODING 353
SWIDTH 700 0
DWIDTH 21 0
BBX 18 25 1 1
BITMAP
03BC00
01F800
01F800
00F000
00E000
000000
000000
000000
3FFF80
7FFF80
7FFFC0
FFFFC0
F00000
F00000
FFFE00
7FFF80
7FFFC0
3FFFC0
0003C0
0003C0
F003C0
FFFFC0
7FFFC0
7FFF80
1FFF00
ENDCHAR
STARTCHAR 0162
ENCODING 354
SWIDTH 766 0
DWIDTH 23 0
BBX 21 28 1 -7
BITMAP
FFFFF8
FFFFF8
FFFFF8
FFFFF8
00F000
00F000
00F000
00F000
00F000
00F000
00F000
00F000
00F000
00F000
00F000
00F000
00F000
00F000
00F000
00F000
00F000
00F000
000000
00F000
00F000
00F000
01E000
01E000
ENDCHAR
STARTCHAR 0163
ENCODING 355
SWIDTH 433 0
DWIDTH 13 0
BBX 10 29 2 -6
BITMAP
F000
F000
F000
F000
F000
F000
FFC0
FFC0
FFC0
FFC0
F000
F000
F000
F000
F000
F000
F000
F000
F000
FFC0
FFC0
FFC0
3FC0
0000
1E00
1E00
3C00
3C00
3C00
ENDCHAR
STARTCHAR 0178
ENCODING 376
SWIDTH 800 0
DWIDTH 24 0
BBX 23 27 1 1
BITMAP
01EF00
01EF00
01EF00
01EF00
000000
F0001E
F8003E
7C007C
3E00F8
1E01F0
1F01F0
0F83E0
07C7C0
07EF80
03EF80
01FF00
00FE00
00FE00
007C00
007800
007800
007800
007800
007800
007800
007800
007800
ENDCHAR
STARTCHAR 0179
ENCODING 377
SWIDTH 833 0
DWIDTH 25 0
BBX 21 29 2 0
BITMAP
003C00
003C00
003C00
003C00
007800
000000
000000
FFFFF8
FFFFF8
FFFFF8
FFFFF8
0001F8
0003F0
0007E0
000FC0
003F80
007E00
00FC00
01F800
03F000
0FE000
1FC000
3F0000
7E0000
FC0000
FFFFF8
FFFFF8
FFFFF8
FFFFF8
ENDCHAR
STARTCHAR 017A
ENCODING 378
SWIDTH 700 0
DWIDTH 21 0
BBX 17 25 2 1
BITMAP
01E000
01E000
01E000
03C000
03C000
000000
000000
000000
FFFF80
FFFF80
FFFF80
FFFF80
003F80
007E00
00FC00
03F800
07E000
0FC000
3F8000
7E0000
FC0000
FFFF80
FFFF80
FFFF80
FFFF80
ENDCHAR
STARTCHAR 017B
ENCODING 379
SWIDTH 833 0
DWIDTH 25 0
BBX 21 28 2 0
BITMAP
007800
007800
007800
007800
000000
000000
FFFFF8
FFFFF8
FFFFF8
FFFFF8
0001F8
0003F0
0007E0
000FC0
003F80
007E00
00FC00
01F800
03F000
0FE000
1FC000
3F0000
7E0000
FC0000
FFFFF8
FFFFF8
FFFFF8
FFFFF8
ENDCHAR
STARTCHAR 017C
ENCODING 380
SWIDTH 700 0
DWIDTH 21 0
BBX 17 24 2 0
BITMAP
01E000
01E000
01E000
01E000
000000
000000
000000
FFFF80
FFFF80
FFFF80
FFFF80
003F80
007E00
00FC00
03F800
07E000
0FC000
3F8000
7E0000
FC0000
FFFF80
FFFF80
FFFF80
FFFF80
ENDCHAR
STARTCHAR 017D
ENCODING 381
SWIDTH 833 0
DWIDTH 25 0
BBX 21 28 2 1
BITMAP
01DE00
00FC00
00FC00
007800
007000
000000
FFFFF8
FFFFF8
FFFFF8
FFFFF8
0001F8
0003F0
0007E0
000FC0
003F80
007E00
00FC00
01F800
03F000
0FE000
1FC000
3F0000
7E0000
FC0000
FFFFF8
FFFFF8
FFFFF8
FFFFF8
ENDCHAR
STARTCHAR 017E
ENCODING 382
SWIDTH 700 0
DWIDTH 21 0
BBX 17 25 2 1
BITMAP
073800
03F000
01F000
01E000
00C000
000000
000000
000000
FFFF80
FFFF80
FFFF80
FFFF80
003F80
007E00
00FC00
03F800
07E000
0FC000
3F8000
7E0000
FC0000
FFFF80
FFFF80
FFFF80
FFFF80
ENDCHAR
STARTCHAR 02C6
ENCODING 710
SWIDTH 300 0
DWIDTH 9 0
BBX 8 4 1 24
BITMAP
3C
3E
7E
F7
ENDCHAR
STARTCHAR 02C7
ENCODING 711
SWIDTH 300 0
DWIDTH 9 0
BBX 8 4 1 24
BITMAP
E7
7E
3E
3C
ENDCHAR
STARTCHAR 02D8
ENCODING 728
SWIDTH 300 0
DWIDTH 9 0
BBX 7 3 1 23
BITMAP
E6
FE
7C
ENDCHAR
STARTCHAR 02D9
ENCODING 729
SWIDTH 233 0
DWIDTH 7 0
BBX 5 4 1 24
BITMAP
78
F8
F8
78
ENDCHAR
STARTCHAR 02DA
ENCODING 730
SWIDTH 233 0
DWIDTH 7 0
BBX 5 5 1 24
BITMAP
F8
F8
D8
F8
F8
ENDCHAR
STARTCHAR 02DC
ENCODING 732
SWIDTH 400 0
DWIDTH 12 0
BBX 11 4 1 24
BITMAP
F800
FFE0
9FE0
07E0
ENDCHAR
STARTCHAR 2013
ENCODING 8211
SWIDTH 700 0
DWIDTH 21 0
BBX 18 4 2 6
BITMAP
FFFFC0
FFFFC0
FFFFC0
FFFFC0
ENDCHAR
STARTCHAR 2014
ENCODING 8212
SWIDTH 833 0
DWIDTH 25 0
BBX 21 4 2 6
BITMAP
FFFFF8
FFFFF8
FFFFF8
FFFFF8
ENDCHAR
STARTCHAR 2018
ENCODING 8216
SWIDTH 233 0
DWIDTH 7 0
BBX 4 8 1 14
BITMAP
10
70
70
F0
F0
F0
F0
F0
ENDCHAR
STARTCHAR 2019
ENCODING 8217
SWIDTH 200 0
DWIDTH 6 0
BBX 4 8 2 13
BITMAP
F0
F0
F0
F0
F0
E0
E0
80
ENDCHAR
STARTCHAR 201C
ENCODING 8220
SWIDTH 400 0
DWIDTH 12 0
BBX 9 7 1 15
BITMAP
3180
7380
F380
F380
F380
F380
F380
ENDCHAR
STARTCHAR 201D
ENCODING 8221
SWIDTH 400 0
DWIDTH 12 0
BBX 9 8 2 13
BITMAP
F780
F780
F780
F780
F780
E700
E700
8400
ENDCHAR
STARTCHAR 2022
ENCODING 8226
SWIDTH 366 0
DWIDTH 11 0
BBX 3 4 4 8
BITMAP
40
E0
E0
E0
ENDCHAR
STARTCHAR 2026
ENCODING 8230
SWIDTH 566 0
DWIDTH 17 0
BBX 14 4 2 0
BITMAP
F7BC
F7BC
F7BC
F7BC
ENDCHAR
STARTCHAR 20AC
ENCODING 8364
SWIDTH 800 0
DWIDTH 24 0
BBX 21 22 1 0
BITMAP
01FFF8
0FFFF8
1FFFF8
1FFFF8
1E0000
1E0000
1E0000
FFFFC0
FFFFC0
FFFFC0
1E0000
1E0000
FFFFC0
FFFFC0
FFFFC0
FFFFC0
1E0000
1E0000
1FFFF8
1FFFF8
0FFFF8
07FFF8
ENDCHAR
STARTCHAR 2212
ENCODING 8722
SWIDTH 533 0
DWIDTH 16 0
BBX 12 4 2 6
BITMAP
FFF0
FFF0
FFF0
FFF0
ENDCHAR
STARTCHAR E000
ENCODING 57344
SWIDTH 0 0
DWIDTH 0 0
BBX 0 0 0 0
BITMAP
ENDCHAR
STARTCHAR E002
ENCODING 57346
SWIDTH 766 0
DWIDTH 23 0
BBX 22 22 1 0
BITMAP
FFFFFC
FFFFFC
FFFFF8
FFFFF0
0003E0
0007C0
000FC0
000F80
001F00
003E00
007C00
00F800
01F800
01F000
03E000
07C000
0F8000
1F0000
3F0000
3E0000
7C0000
F80000
ENDCHAR
STARTCHAR E003
ENCODING 57347
SWIDTH 800 0
DWIDTH 24 0
BBX 22 22 0 0
BITMAP
0FFFC0
3FFFF0
7FFFF8
FFFFFC
F0003C
F0003C
F0003C
F0003C
F0003C
FFFFFC
7FFFFC
7FFFFC
3FFFFC
00003C
00003C
00003C
00003C
00003C
00003C
00003C
00003C
00003C
ENDCHAR
STARTCHAR E005
ENCODING 57349
SWIDTH 800 0
DWIDTH 24 0
BBX 22 22 1 0
BITMAP
0FFFC0
3FFFF8
7FFFF8
7FFFFC
F0003C
F0003C
F000FC
0003FC
0007F8
001FE0
007F80
01FE00
07F800
1FF000
7FC000
FF0000
FC0000
F00000
FFFFFC
7FFFFC
7FFFFC
1FFFFC
ENDCHAR
STARTCHAR E006
ENCODING 57350
SWIDTH 666 0
DWIDTH 20 0
BBX 18 22 1 0
BITMAP
1FFE00
7FFF80
FFFFC0
FFFFC0
F003C0
F003C0
F003C0
0003C0
0003C0
0003C0
01FFC0
07FFC0
07FF80
07FF00
078000
078000
078000
000000
078000
078000
078000
078000
ENDCHAR
STARTCHAR E007
ENCODING 57351
SWIDTH 733 0
DWIDTH 22 0
BBX 21 22 0 0
BITMAP
001E00
003E00
007E00
00FC00
01F800
01F000
03E000
07C000
0F83C0
1F03C0
3E03C0
7C03C0
7C03C0
FFFFF8
FFFFF8
FFFFF8
FFFFF8
0003C0
0003C0
0003C0
0003C0
0003C0
ENDCHAR
STARTCHAR E00A
ENCODING 57354
SWIDTH 766 0
DWIDTH 23 0
BBX 21 22 2 0
BITMAP
F00078
F000F8
F001F0
F003E0
F007E0
F00FC0
F00F80
F01F00
F03E00
F07C00
F0FC00
F0F800
F1F000
F3E000
F7C000
FF8000
FF8000
FF0000
FE0000
FC0000
F80000
F00000
ENDCHAR
STARTCHAR E00B
ENCODING 57355
SWIDTH 766 0
DWIDTH 23 0
BBX 21 22 0 0
BITMAP
000078
0000F8
0001F8
0001F8
0003F8
0007F8
000FF8
001F78
003F78
003E78
007C78
00F878
01F078
03FFF8
07FFF8
07FFF8
0FFFF8
1F0078
3E0078
7C0078
FC0078
F80078
ENDCHAR
STARTCHAR E00C
ENCODING 57356
SWIDTH 766 0
DWIDTH 23 0
BBX 21 22 2 0
BITMAP
F00000
F80000
FC0000
FC0000
FE0000
FF0000
FF8000
F7C000
F7E000
F3E000
F1F000
F0F800
F07C00
FFFE00
FFFF00
FFFF00
FFFF80
F007C0
F003E0
F001F0
F001F8
F000F8
ENDCHAR
STARTCHAR FFF0
ENCODING 65520
SWIDTH 0 0
DWIDTH 0 0
BBX 10 13 13 4
BITMAP
0040
00C0
01C0
03C0
07C0
0F80
1F00
3E00
7C00
F800
E000
C000
8000
ENDCHAR
ENDFONT
